<svg width="452" height="452" viewBox="0 0 452 452" fill="none" xmlns="http://www.w3.org/2000/svg">
<path d="M429.029 442.373C461.254 414.9 442.492 360.985 429.029 344.441C415.278 327.543 390.813 353.31 370.919 373.87C352.1 393.32 315.134 428.173 315.134 428.173C315.134 428.173 396.209 470.353 429.029 442.373Z" fill="#FF7400"/>
<path fill-rule="evenodd" clip-rule="evenodd" d="M331.596 28.5298V214.35C331.596 235.519 404.5 291.971 452 343.718V54.4035C449.184 23.5809 428.018 0.0412183 385.686 0.0412531C341.003 0.0413352 331.596 -2.3126 331.596 28.5298Z" fill="white"/>
<g filter="url(#filter0_i_105_130)">
<path d="M84.663 452C33.4921 452 4.70339 435.522 1.52588e-05 397.859L1.52588e-05 94.1995L124.643 223.667L124.643 419.045C124.643 449.646 129.346 452 84.663 452Z" fill="white"/>
</g>
<path d="M44.6832 0.041544C84.663 0.0415288 103.477 21.2272 103.477 21.2272L378.632 291.931C411.556 324.887 378.632 348.426 357.466 369.612C336.3 390.797 315.134 427.466 284.562 396.864L124.643 230.729L0 94.1996V25.935C0 25.935 0.420334 15.0339 7.05525 9.45735C17.1255 0.993414 21.1657 0.04151 44.6832 0.041544Z" fill="white"/>
<defs>
<filter id="filter0_i_105_130" x="1.52588e-05" y="94.1995" width="124.785" height="382.8" filterUnits="userSpaceOnUse" color-interpolation-filters="sRGB">
<feFlood flood-opacity="0" result="BackgroundImageFix"/>
<feBlend mode="normal" in="SourceGraphic" in2="BackgroundImageFix" result="shape"/>
<feColorMatrix in="SourceAlpha" type="matrix" values="0 0 0 0 0 0 0 0 0 0 0 0 0 0 0 0 0 0 127 0" result="hardAlpha"/>
<feOffset dy="25"/>
<feGaussianBlur stdDeviation="12.5"/>
<feComposite in2="hardAlpha" operator="arithmetic" k2="-1" k3="1"/>
<feColorMatrix type="matrix" values="0 0 0 0 0 0 0 0 0 0 0 0 0 0 0 0 0 0 0.3 0"/>
<feBlend mode="normal" in2="shape" result="effect1_innerShadow_105_130"/>
</filter>
</defs>
</svg>
