<svg width="1200" height="630" viewBox="0 0 1200 630" fill="none" xmlns="http://www.w3.org/2000/svg">
<g clip-path="url(#clip0_105_219)">
<path d="M1200 0H0V630H1200V0Z" fill="#0F172A"/>
<path opacity="0.1" d="M1075 300C1196.5 300 1295 201.503 1295 80C1295 -41.5026 1196.5 -140 1075 -140C953.497 -140 855 -41.5026 855 80C855 201.503 953.497 300 1075 300Z" fill="#FF7400"/>
<path opacity="0.1" d="M82 810C203.503 810 302 711.503 302 590C302 468.497 203.503 370 82 370C-39.5026 370 -138 468.497 -138 590C-138 711.503 -39.5026 810 82 810Z" fill="#8F8F8F"/>
<path d="M1096 72H104C86.3269 72 72 86.3269 72 104V526C72 543.673 86.3269 558 104 558H1096C1113.67 558 1128 543.673 1128 526V104C1128 86.3269 1113.67 72 1096 72Z" stroke="#94A3B8" stroke-opacity="0.25"/>
<path d="M333.458 289H321.614V220.286H333.552L365.794 268.978V220.286H377.638V289H365.794L333.458 240.308V289ZM411.93 290.222C398.112 290.222 388.43 280.164 388.43 265.782C388.43 251.212 397.924 241.154 411.554 241.154C425.466 241.154 434.302 250.46 434.302 264.936V268.414L399.334 268.508C400.18 276.686 404.504 280.822 412.118 280.822C418.416 280.822 422.552 278.378 423.868 273.96H434.49C432.516 284.112 424.056 290.222 411.93 290.222ZM411.648 250.554C404.88 250.554 400.744 254.22 399.616 261.176H422.928C422.928 254.784 418.51 250.554 411.648 250.554ZM449.453 289H436.387L452.367 266.252L436.387 242.564H449.735L459.981 258.356L469.851 242.564H482.729L466.937 266.064L482.259 289H469.099L459.229 273.678L449.453 289ZM484.725 265.688C484.725 251.212 495.159 241.248 509.541 241.248C523.923 241.248 534.357 251.212 534.357 265.688C534.357 280.164 523.923 290.128 509.541 290.128C495.159 290.128 484.725 280.164 484.725 265.688ZM496.193 265.688C496.193 274.148 501.645 279.882 509.541 279.882C517.437 279.882 522.889 274.148 522.889 265.688C522.889 257.228 517.437 251.494 509.541 251.494C501.645 251.494 496.193 257.228 496.193 265.688ZM554.069 289H543.447V219.064H554.915V249.332C557.923 244.162 564.127 241.06 571.177 241.06C584.431 241.06 592.515 251.4 592.515 266.064C592.515 280.352 583.773 290.222 570.425 290.222C563.469 290.222 557.547 287.12 554.821 281.762L554.069 289ZM555.009 265.594C555.009 273.96 560.179 279.694 568.075 279.694C576.159 279.694 580.953 273.866 580.953 265.594C580.953 257.322 576.159 251.4 568.075 251.4C560.179 251.4 555.009 257.228 555.009 265.594ZM607.381 233.258C603.433 233.258 600.331 230.156 600.331 226.302C600.331 222.448 603.433 219.44 607.381 219.44C611.141 219.44 614.243 222.448 614.243 226.302C614.243 230.156 611.141 233.258 607.381 233.258ZM601.647 289V242.564H613.115V289H601.647ZM640.755 289H629.287V252.152H620.357V242.564H629.287V228.088H640.755V242.564H649.779V252.152H640.755V289ZM677.223 290.222C663.405 290.222 653.723 280.164 653.723 265.782C653.723 251.212 663.217 241.154 676.847 241.154C690.759 241.154 699.595 250.46 699.595 264.936V268.414L664.627 268.508C665.473 276.686 669.797 280.822 677.411 280.822C683.709 280.822 687.845 278.378 689.161 273.96H699.783C697.809 284.112 689.349 290.222 677.223 290.222ZM676.941 250.554C670.173 250.554 666.037 254.22 664.909 261.176H688.221C688.221 254.784 683.803 250.554 676.941 250.554Z" fill="white"/>
<path d="M612.857 219H602.143C600.959 219 600 219.959 600 221.143V231.857C600 233.041 600.959 234 602.143 234H612.857C614.041 234 615 233.041 615 231.857V221.143C615 219.959 614.041 219 612.857 219Z" fill="#ED8936"/>
<path d="M149.964 428.536H140.532L139.02 433H132.576L141.72 407.728H148.848L157.992 433H151.476L149.964 428.536ZM148.38 423.784L145.248 414.532L142.152 423.784H148.38ZM180.611 412.912V433H174.455V430.264C173.831 431.152 172.979 431.872 171.899 432.424C170.843 432.952 169.667 433.216 168.371 433.216C166.835 433.216 165.479 432.88 164.303 432.208C163.127 431.512 162.215 430.516 161.567 429.22C160.919 427.924 160.595 426.4 160.595 424.648V412.912H166.715V423.82C166.715 425.164 167.063 426.208 167.759 426.952C168.455 427.696 169.391 428.068 170.567 428.068C171.767 428.068 172.715 427.696 173.411 426.952C174.107 426.208 174.455 425.164 174.455 423.82V412.912H180.611ZM196.229 427.78V433H193.097C190.865 433 189.125 432.46 187.877 431.38C186.629 430.276 186.005 428.488 186.005 426.016V418.024H183.557V412.912H186.005V408.016H192.161V412.912H196.193V418.024H192.161V426.088C192.161 426.688 192.305 427.12 192.593 427.384C192.881 427.648 193.361 427.78 194.033 427.78H196.229ZM208.802 433.288C206.834 433.288 205.058 432.868 203.474 432.028C201.914 431.188 200.678 429.988 199.766 428.428C198.878 426.868 198.434 425.044 198.434 422.956C198.434 420.892 198.89 419.08 199.802 417.52C200.714 415.936 201.962 414.724 203.546 413.884C205.13 413.044 206.906 412.624 208.874 412.624C210.842 412.624 212.618 413.044 214.202 413.884C215.786 414.724 217.034 415.936 217.946 417.52C218.858 419.08 219.314 420.892 219.314 422.956C219.314 425.02 218.846 426.844 217.91 428.428C216.998 429.988 215.738 431.188 214.13 432.028C212.546 432.868 210.77 433.288 208.802 433.288ZM208.802 427.96C209.978 427.96 210.974 427.528 211.79 426.664C212.63 425.8 213.05 424.564 213.05 422.956C213.05 421.348 212.642 420.112 211.826 419.248C211.034 418.384 210.05 417.952 208.874 417.952C207.674 417.952 206.678 418.384 205.886 419.248C205.094 420.088 204.698 421.324 204.698 422.956C204.698 424.564 205.082 425.8 205.85 426.664C206.642 427.528 207.626 427.96 208.802 427.96ZM248.212 412.696C250.708 412.696 252.688 413.452 254.152 414.964C255.64 416.476 256.384 418.576 256.384 421.264V433H250.264V422.092C250.264 420.796 249.916 419.8 249.22 419.104C248.548 418.384 247.612 418.024 246.412 418.024C245.212 418.024 244.264 418.384 243.568 419.104C242.896 419.8 242.56 420.796 242.56 422.092V433H236.44V422.092C236.44 420.796 236.092 419.8 235.396 419.104C234.724 418.384 233.788 418.024 232.588 418.024C231.388 418.024 230.44 418.384 229.744 419.104C229.072 419.8 228.736 420.796 228.736 422.092V433H222.58V412.912H228.736V415.432C229.36 414.592 230.176 413.932 231.184 413.452C232.192 412.948 233.332 412.696 234.604 412.696C236.116 412.696 237.46 413.02 238.636 413.668C239.836 414.316 240.772 415.24 241.444 416.44C242.14 415.336 243.088 414.436 244.288 413.74C245.488 413.044 246.796 412.696 248.212 412.696ZM259.465 422.92C259.465 420.856 259.849 419.044 260.617 417.484C261.409 415.924 262.477 414.724 263.821 413.884C265.165 413.044 266.665 412.624 268.321 412.624C269.737 412.624 270.973 412.912 272.029 413.488C273.109 414.064 273.937 414.82 274.513 415.756V412.912H280.669V433H274.513V430.156C273.913 431.092 273.073 431.848 271.993 432.424C270.937 433 269.701 433.288 268.285 433.288C266.653 433.288 265.165 432.868 263.821 432.028C262.477 431.164 261.409 429.952 260.617 428.392C259.849 426.808 259.465 424.984 259.465 422.92ZM274.513 422.956C274.513 421.42 274.081 420.208 273.217 419.32C272.377 418.432 271.345 417.988 270.121 417.988C268.897 417.988 267.853 418.432 266.989 419.32C266.149 420.184 265.729 421.384 265.729 422.92C265.729 424.456 266.149 425.68 266.989 426.592C267.853 427.48 268.897 427.924 270.121 427.924C271.345 427.924 272.377 427.48 273.217 426.592C274.081 425.704 274.513 424.492 274.513 422.956ZM296.319 427.78V433H293.187C290.955 433 289.215 432.46 287.967 431.38C286.719 430.276 286.095 428.488 286.095 426.016V418.024H283.647V412.912H286.095V408.016H292.251V412.912H296.283V418.024H292.251V426.088C292.251 426.688 292.395 427.12 292.683 427.384C292.971 427.648 293.451 427.78 294.123 427.78H296.319ZM302.844 410.824C301.764 410.824 300.876 410.512 300.18 409.888C299.508 409.24 299.172 408.448 299.172 407.512C299.172 406.552 299.508 405.76 300.18 405.136C300.876 404.488 301.764 404.164 302.844 404.164C303.9 404.164 304.764 404.488 305.436 405.136C306.132 405.76 306.48 406.552 306.48 407.512C306.48 408.448 306.132 409.24 305.436 409.888C304.764 410.512 303.9 410.824 302.844 410.824ZM305.904 412.912V433H299.748V412.912H305.904ZM316.125 427.924H324.837V433H309.249V428.104L317.601 417.988H309.321V412.912H324.657V417.808L316.125 427.924ZM327 422.92C327 420.856 327.384 419.044 328.152 417.484C328.944 415.924 330.012 414.724 331.356 413.884C332.7 413.044 334.2 412.624 335.856 412.624C337.272 412.624 338.508 412.912 339.564 413.488C340.644 414.064 341.472 414.82 342.048 415.756V412.912H348.204V433H342.048V430.156C341.448 431.092 340.608 431.848 339.528 432.424C338.472 433 337.236 433.288 335.82 433.288C334.188 433.288 332.7 432.868 331.356 432.028C330.012 431.164 328.944 429.952 328.152 428.392C327.384 426.808 327 424.984 327 422.92ZM342.048 422.956C342.048 421.42 341.616 420.208 340.752 419.32C339.912 418.432 338.88 417.988 337.656 417.988C336.432 417.988 335.388 418.432 334.524 419.32C333.684 420.184 333.264 421.384 333.264 422.92C333.264 424.456 333.684 425.68 334.524 426.592C335.388 427.48 336.432 427.924 337.656 427.924C338.88 427.924 339.912 427.48 340.752 426.592C341.616 425.704 342.048 424.492 342.048 422.956ZM351.434 422.956C351.434 420.868 351.854 419.044 352.694 417.484C353.558 415.924 354.746 414.724 356.258 413.884C357.794 413.044 359.546 412.624 361.514 412.624C364.034 412.624 366.134 413.284 367.814 414.604C369.518 415.924 370.634 417.784 371.162 420.184H364.61C364.058 418.648 362.99 417.88 361.406 417.88C360.278 417.88 359.378 418.324 358.706 419.212C358.034 420.076 357.698 421.324 357.698 422.956C357.698 424.588 358.034 425.848 358.706 426.736C359.378 427.6 360.278 428.032 361.406 428.032C362.99 428.032 364.058 427.264 364.61 425.728H371.162C370.634 428.08 369.518 429.928 367.814 431.272C366.11 432.616 364.01 433.288 361.514 433.288C359.546 433.288 357.794 432.868 356.258 432.028C354.746 431.188 353.558 429.988 352.694 428.428C351.854 426.868 351.434 425.044 351.434 422.956ZM377.551 410.824C376.471 410.824 375.583 410.512 374.887 409.888C374.215 409.24 373.879 408.448 373.879 407.512C373.879 406.552 374.215 405.76 374.887 405.136C375.583 404.488 376.471 404.164 377.551 404.164C378.607 404.164 379.471 404.488 380.143 405.136C380.839 405.76 381.187 406.552 381.187 407.512C381.187 408.448 380.839 409.24 380.143 409.888C379.471 410.512 378.607 410.824 377.551 410.824ZM380.611 412.912V433H374.455V412.912H380.611ZM394.216 433.288C392.248 433.288 390.472 432.868 388.888 432.028C387.328 431.188 386.092 429.988 385.18 428.428C384.292 426.868 383.848 425.044 383.848 422.956C383.848 420.892 384.304 419.08 385.216 417.52C386.128 415.936 387.376 414.724 388.96 413.884C390.544 413.044 392.32 412.624 394.288 412.624C396.256 412.624 398.032 413.044 399.616 413.884C401.2 414.724 402.448 415.936 403.36 417.52C404.272 419.08 404.728 420.892 404.728 422.956C404.728 425.02 404.26 426.844 403.324 428.428C402.412 429.988 401.152 431.188 399.544 432.028C397.96 432.868 396.184 433.288 394.216 433.288ZM394.216 427.96C395.392 427.96 396.388 427.528 397.204 426.664C398.044 425.8 398.464 424.564 398.464 422.956C398.464 421.348 398.056 420.112 397.24 419.248C396.448 418.384 395.464 417.952 394.288 417.952C393.088 417.952 392.092 418.384 391.3 419.248C390.508 420.088 390.112 421.324 390.112 422.956C390.112 424.564 390.496 425.8 391.264 426.664C392.056 427.528 393.04 427.96 394.216 427.96ZM420.234 412.696C422.586 412.696 424.458 413.464 425.85 415C427.266 416.512 427.974 418.6 427.974 421.264V433H421.854V422.092C421.854 420.748 421.506 419.704 420.81 418.96C420.114 418.216 419.178 417.844 418.002 417.844C416.826 417.844 415.89 418.216 415.194 418.96C414.498 419.704 414.15 420.748 414.15 422.092V433H407.994V412.912H414.15V415.576C414.774 414.688 415.614 413.992 416.67 413.488C417.726 412.96 418.914 412.696 420.234 412.696ZM460.4 412.912L447.8 442.54H441.176L445.784 432.316L437.612 412.912H444.488L449.132 425.476L453.74 412.912H460.4ZM478.427 433.288C476.675 433.288 475.115 432.988 473.747 432.388C472.379 431.788 471.299 430.972 470.507 429.94C469.715 428.884 469.271 427.708 469.175 426.412H475.259C475.331 427.108 475.655 427.672 476.231 428.104C476.807 428.536 477.515 428.752 478.355 428.752C479.123 428.752 479.711 428.608 480.119 428.32C480.551 428.008 480.767 427.612 480.767 427.132C480.767 426.556 480.467 426.136 479.867 425.872C479.267 425.584 478.295 425.272 476.951 424.936C475.511 424.6 474.311 424.252 473.351 423.892C472.391 423.508 471.563 422.92 470.867 422.128C470.171 421.312 469.823 420.22 469.823 418.852C469.823 417.7 470.135 416.656 470.759 415.72C471.407 414.76 472.343 414.004 473.567 413.452C474.815 412.9 476.291 412.624 477.995 412.624C480.515 412.624 482.495 413.248 483.935 414.496C485.399 415.744 486.239 417.4 486.455 419.464H480.767C480.671 418.768 480.359 418.216 479.831 417.808C479.327 417.4 478.655 417.196 477.815 417.196C477.095 417.196 476.543 417.34 476.159 417.628C475.775 417.892 475.583 418.264 475.583 418.744C475.583 419.32 475.883 419.752 476.483 420.04C477.107 420.328 478.067 420.616 479.363 420.904C480.851 421.288 482.063 421.672 482.999 422.056C483.935 422.416 484.751 423.016 485.447 423.856C486.167 424.672 486.539 425.776 486.563 427.168C486.563 428.344 486.227 429.4 485.555 430.336C484.907 431.248 483.959 431.968 482.711 432.496C481.487 433.024 480.059 433.288 478.427 433.288ZM499.474 433.288C497.506 433.288 495.73 432.868 494.146 432.028C492.586 431.188 491.35 429.988 490.438 428.428C489.55 426.868 489.106 425.044 489.106 422.956C489.106 420.892 489.562 419.08 490.474 417.52C491.386 415.936 492.634 414.724 494.218 413.884C495.802 413.044 497.578 412.624 499.546 412.624C501.514 412.624 503.29 413.044 504.874 413.884C506.458 414.724 507.706 415.936 508.618 417.52C509.53 419.08 509.986 420.892 509.986 422.956C509.986 425.02 509.518 426.844 508.582 428.428C507.67 429.988 506.41 431.188 504.802 432.028C503.218 432.868 501.442 433.288 499.474 433.288ZM499.474 427.96C500.65 427.96 501.646 427.528 502.462 426.664C503.302 425.8 503.722 424.564 503.722 422.956C503.722 421.348 503.314 420.112 502.498 419.248C501.706 418.384 500.722 417.952 499.546 417.952C498.346 417.952 497.35 418.384 496.558 419.248C495.766 420.088 495.37 421.324 495.37 422.956C495.37 424.564 495.754 425.8 496.522 426.664C497.314 427.528 498.298 427.96 499.474 427.96ZM519.408 406.36V433H513.252V406.36H519.408ZM543.705 412.912V433H537.549V430.264C536.925 431.152 536.073 431.872 534.993 432.424C533.937 432.952 532.761 433.216 531.465 433.216C529.929 433.216 528.573 432.88 527.397 432.208C526.221 431.512 525.309 430.516 524.661 429.22C524.013 427.924 523.689 426.4 523.689 424.648V412.912H529.809V423.82C529.809 425.164 530.157 426.208 530.853 426.952C531.549 427.696 532.485 428.068 533.661 428.068C534.861 428.068 535.809 427.696 536.505 426.952C537.201 426.208 537.549 425.164 537.549 423.82V412.912H543.705ZM546.903 422.956C546.903 420.868 547.323 419.044 548.163 417.484C549.027 415.924 550.215 414.724 551.727 413.884C553.263 413.044 555.015 412.624 556.983 412.624C559.503 412.624 561.603 413.284 563.283 414.604C564.987 415.924 566.103 417.784 566.631 420.184H560.079C559.527 418.648 558.459 417.88 556.875 417.88C555.747 417.88 554.847 418.324 554.175 419.212C553.503 420.076 553.167 421.324 553.167 422.956C553.167 424.588 553.503 425.848 554.175 426.736C554.847 427.6 555.747 428.032 556.875 428.032C558.459 428.032 559.527 427.264 560.079 425.728H566.631C566.103 428.08 564.987 429.928 563.283 431.272C561.579 432.616 559.479 433.288 556.983 433.288C555.015 433.288 553.263 432.868 551.727 432.028C550.215 431.188 549.027 429.988 548.163 428.428C547.323 426.868 546.903 425.044 546.903 422.956ZM573.019 410.824C571.939 410.824 571.051 410.512 570.355 409.888C569.683 409.24 569.347 408.448 569.347 407.512C569.347 406.552 569.683 405.76 570.355 405.136C571.051 404.488 571.939 404.164 573.019 404.164C574.075 404.164 574.939 404.488 575.611 405.136C576.307 405.76 576.655 406.552 576.655 407.512C576.655 408.448 576.307 409.24 575.611 409.888C574.939 410.512 574.075 410.824 573.019 410.824ZM576.079 412.912V433H569.923V412.912H576.079ZM589.685 433.288C587.717 433.288 585.941 432.868 584.357 432.028C582.797 431.188 581.561 429.988 580.649 428.428C579.761 426.868 579.317 425.044 579.317 422.956C579.317 420.892 579.773 419.08 580.685 417.52C581.597 415.936 582.845 414.724 584.429 413.884C586.013 413.044 587.789 412.624 589.757 412.624C591.725 412.624 593.501 413.044 595.085 413.884C596.669 414.724 597.917 415.936 598.829 417.52C599.741 419.08 600.197 420.892 600.197 422.956C600.197 425.02 599.729 426.844 598.793 428.428C597.881 429.988 596.621 431.188 595.013 432.028C593.429 432.868 591.653 433.288 589.685 433.288ZM589.685 427.96C590.861 427.96 591.857 427.528 592.673 426.664C593.513 425.8 593.933 424.564 593.933 422.956C593.933 421.348 593.525 420.112 592.709 419.248C591.917 418.384 590.933 417.952 589.757 417.952C588.557 417.952 587.561 418.384 586.769 419.248C585.977 420.088 585.581 421.324 585.581 422.956C585.581 424.564 585.965 425.8 586.733 426.664C587.525 427.528 588.509 427.96 589.685 427.96ZM615.702 412.696C618.054 412.696 619.926 413.464 621.318 415C622.734 416.512 623.442 418.6 623.442 421.264V433H617.322V422.092C617.322 420.748 616.974 419.704 616.278 418.96C615.582 418.216 614.646 417.844 613.47 417.844C612.294 417.844 611.358 418.216 610.662 418.96C609.966 419.704 609.618 420.748 609.618 422.092V433H603.462V412.912H609.618V415.576C610.242 414.688 611.082 413.992 612.138 413.488C613.194 412.96 614.382 412.696 615.702 412.696ZM646.656 422.632C646.656 423.208 646.62 423.808 646.548 424.432H632.616C632.712 425.68 633.108 426.64 633.804 427.312C634.524 427.96 635.4 428.284 636.432 428.284C637.968 428.284 639.036 427.636 639.636 426.34H646.188C645.852 427.66 645.24 428.848 644.352 429.904C643.488 430.96 642.396 431.788 641.076 432.388C639.756 432.988 638.28 433.288 636.648 433.288C634.68 433.288 632.928 432.868 631.392 432.028C629.856 431.188 628.656 429.988 627.792 428.428C626.928 426.868 626.496 425.044 626.496 422.956C626.496 420.868 626.916 419.044 627.756 417.484C628.62 415.924 629.82 414.724 631.356 413.884C632.892 413.044 634.656 412.624 636.648 412.624C638.592 412.624 640.32 413.032 641.832 413.848C643.344 414.664 644.52 415.828 645.36 417.34C646.224 418.852 646.656 420.616 646.656 422.632ZM640.356 421.012C640.356 419.956 639.996 419.116 639.276 418.492C638.556 417.868 637.656 417.556 636.576 417.556C635.544 417.556 634.668 417.856 633.948 418.456C633.252 419.056 632.82 419.908 632.652 421.012H640.356ZM658.076 433.288C656.324 433.288 654.764 432.988 653.396 432.388C652.028 431.788 650.948 430.972 650.156 429.94C649.364 428.884 648.92 427.708 648.824 426.412H654.908C654.98 427.108 655.304 427.672 655.88 428.104C656.456 428.536 657.164 428.752 658.004 428.752C658.772 428.752 659.36 428.608 659.768 428.32C660.2 428.008 660.416 427.612 660.416 427.132C660.416 426.556 660.116 426.136 659.516 425.872C658.916 425.584 657.944 425.272 656.6 424.936C655.16 424.6 653.96 424.252 653 423.892C652.04 423.508 651.212 422.92 650.516 422.128C649.82 421.312 649.472 420.22 649.472 418.852C649.472 417.7 649.784 416.656 650.408 415.72C651.056 414.76 651.992 414.004 653.216 413.452C654.464 412.9 655.94 412.624 657.644 412.624C660.164 412.624 662.144 413.248 663.584 414.496C665.048 415.744 665.888 417.4 666.104 419.464H660.416C660.32 418.768 660.008 418.216 659.48 417.808C658.976 417.4 658.304 417.196 657.464 417.196C656.744 417.196 656.192 417.34 655.808 417.628C655.424 417.892 655.232 418.264 655.232 418.744C655.232 419.32 655.532 419.752 656.132 420.04C656.756 420.328 657.716 420.616 659.012 420.904C660.5 421.288 661.712 421.672 662.648 422.056C663.584 422.416 664.4 423.016 665.096 423.856C665.816 424.672 666.188 425.776 666.212 427.168C666.212 428.344 665.876 429.4 665.204 430.336C664.556 431.248 663.608 431.968 662.36 432.496C661.136 433.024 659.708 433.288 658.076 433.288ZM676.383 422.92C676.383 420.856 676.767 419.044 677.535 417.484C678.327 415.924 679.395 414.724 680.739 413.884C682.083 413.044 683.583 412.624 685.239 412.624C686.559 412.624 687.759 412.9 688.839 413.452C689.943 414.004 690.807 414.748 691.431 415.684V406.36H697.587V433H691.431V430.12C690.855 431.08 690.027 431.848 688.947 432.424C687.891 433 686.655 433.288 685.239 433.288C683.583 433.288 682.083 432.868 680.739 432.028C679.395 431.164 678.327 429.952 677.535 428.392C676.767 426.808 676.383 424.984 676.383 422.92ZM691.431 422.956C691.431 421.42 690.999 420.208 690.135 419.32C689.295 418.432 688.263 417.988 687.039 417.988C685.815 417.988 684.771 418.432 683.907 419.32C683.067 420.184 682.647 421.384 682.647 422.92C682.647 424.456 683.067 425.68 683.907 426.592C684.771 427.48 685.815 427.924 687.039 427.924C688.263 427.924 689.295 427.48 690.135 426.592C690.999 425.704 691.431 424.492 691.431 422.956ZM705.137 410.824C704.057 410.824 703.169 410.512 702.473 409.888C701.801 409.24 701.465 408.448 701.465 407.512C701.465 406.552 701.801 405.76 702.473 405.136C703.169 404.488 704.057 404.164 705.137 404.164C706.193 404.164 707.057 404.488 707.729 405.136C708.425 405.76 708.773 406.552 708.773 407.512C708.773 408.448 708.425 409.24 707.729 409.888C707.057 410.512 706.193 410.824 705.137 410.824ZM708.197 412.912V433H702.041V412.912H708.197ZM720.29 412.624C721.706 412.624 722.942 412.912 723.998 413.488C725.078 414.064 725.906 414.82 726.482 415.756V412.912H732.638V432.964C732.638 434.812 732.266 436.48 731.522 437.968C730.802 439.48 729.686 440.68 728.174 441.568C726.686 442.456 724.826 442.9 722.594 442.9C719.618 442.9 717.206 442.192 715.358 440.776C713.51 439.384 712.454 437.488 712.19 435.088H718.274C718.466 435.856 718.922 436.456 719.642 436.888C720.362 437.344 721.25 437.572 722.306 437.572C723.578 437.572 724.586 437.2 725.33 436.456C726.098 435.736 726.482 434.572 726.482 432.964V430.12C725.882 431.056 725.054 431.824 723.998 432.424C722.942 433 721.706 433.288 720.29 433.288C718.634 433.288 717.134 432.868 715.79 432.028C714.446 431.164 713.378 429.952 712.586 428.392C711.818 426.808 711.434 424.984 711.434 422.92C711.434 420.856 711.818 419.044 712.586 417.484C713.378 415.924 714.446 414.724 715.79 413.884C717.134 413.044 718.634 412.624 720.29 412.624ZM726.482 422.956C726.482 421.42 726.05 420.208 725.186 419.32C724.346 418.432 723.314 417.988 722.09 417.988C720.866 417.988 719.822 418.432 718.958 419.32C718.118 420.184 717.698 421.384 717.698 422.92C717.698 424.456 718.118 425.68 718.958 426.592C719.822 427.48 720.866 427.924 722.09 427.924C723.314 427.924 724.346 427.48 725.186 426.592C726.05 425.704 726.482 424.492 726.482 422.956ZM740.187 410.824C739.107 410.824 738.219 410.512 737.523 409.888C736.851 409.24 736.515 408.448 736.515 407.512C736.515 406.552 736.851 405.76 737.523 405.136C738.219 404.488 739.107 404.164 740.187 404.164C741.243 404.164 742.107 404.488 742.779 405.136C743.475 405.76 743.823 406.552 743.823 407.512C743.823 408.448 743.475 409.24 742.779 409.888C742.107 410.512 741.243 410.824 740.187 410.824ZM743.247 412.912V433H737.091V412.912H743.247ZM758.905 427.78V433H755.773C753.541 433 751.801 432.46 750.553 431.38C749.305 430.276 748.681 428.488 748.681 426.016V418.024H746.233V412.912H748.681V408.016H754.837V412.912H758.869V418.024H754.837V426.088C754.837 426.688 754.981 427.12 755.269 427.384C755.557 427.648 756.037 427.78 756.709 427.78H758.905ZM761.11 422.92C761.11 420.856 761.494 419.044 762.262 417.484C763.054 415.924 764.122 414.724 765.466 413.884C766.81 413.044 768.31 412.624 769.966 412.624C771.382 412.624 772.618 412.912 773.674 413.488C774.754 414.064 775.582 414.82 776.158 415.756V412.912H782.314V433H776.158V430.156C775.558 431.092 774.718 431.848 773.638 432.424C772.582 433 771.346 433.288 769.93 433.288C768.298 433.288 766.81 432.868 765.466 432.028C764.122 431.164 763.054 429.952 762.262 428.392C761.494 426.808 761.11 424.984 761.11 422.92ZM776.158 422.956C776.158 421.42 775.726 420.208 774.862 419.32C774.022 418.432 772.99 417.988 771.766 417.988C770.542 417.988 769.498 418.432 768.634 419.32C767.794 420.184 767.374 421.384 767.374 422.92C767.374 424.456 767.794 425.68 768.634 426.592C769.498 427.48 770.542 427.924 771.766 427.924C772.99 427.924 774.022 427.48 774.862 426.592C775.726 425.704 776.158 424.492 776.158 422.956ZM792.923 406.36V433H786.767V406.36H792.923ZM816.32 422.632C816.32 423.208 816.284 423.808 816.212 424.432H802.28C802.376 425.68 802.772 426.64 803.468 427.312C804.188 427.96 805.064 428.284 806.096 428.284C807.632 428.284 808.7 427.636 809.3 426.34H815.852C815.516 427.66 814.904 428.848 814.016 429.904C813.152 430.96 812.06 431.788 810.74 432.388C809.42 432.988 807.944 433.288 806.312 433.288C804.344 433.288 802.592 432.868 801.056 432.028C799.52 431.188 798.32 429.988 797.456 428.428C796.592 426.868 796.16 425.044 796.16 422.956C796.16 420.868 796.58 419.044 797.42 417.484C798.284 415.924 799.484 414.724 801.02 413.884C802.556 413.044 804.32 412.624 806.312 412.624C808.256 412.624 809.984 413.032 811.496 413.848C813.008 414.664 814.184 415.828 815.024 417.34C815.888 418.852 816.32 420.616 816.32 422.632ZM810.02 421.012C810.02 419.956 809.66 419.116 808.94 418.492C808.22 417.868 807.32 417.556 806.24 417.556C805.208 417.556 804.332 417.856 803.612 418.456C802.916 419.056 802.484 419.908 802.316 421.012H810.02ZM827.74 433.288C825.988 433.288 824.428 432.988 823.06 432.388C821.692 431.788 820.612 430.972 819.82 429.94C819.028 428.884 818.584 427.708 818.488 426.412H824.572C824.644 427.108 824.968 427.672 825.544 428.104C826.12 428.536 826.828 428.752 827.668 428.752C828.436 428.752 829.024 428.608 829.432 428.32C829.864 428.008 830.08 427.612 830.08 427.132C830.08 426.556 829.78 426.136 829.18 425.872C828.58 425.584 827.608 425.272 826.264 424.936C824.824 424.6 823.624 424.252 822.664 423.892C821.704 423.508 820.876 422.92 820.18 422.128C819.484 421.312 819.136 420.22 819.136 418.852C819.136 417.7 819.448 416.656 820.072 415.72C820.72 414.76 821.656 414.004 822.88 413.452C824.128 412.9 825.604 412.624 827.308 412.624C829.828 412.624 831.808 413.248 833.248 414.496C834.712 415.744 835.552 417.4 835.768 419.464H830.08C829.984 418.768 829.672 418.216 829.144 417.808C828.64 417.4 827.968 417.196 827.128 417.196C826.408 417.196 825.856 417.34 825.472 417.628C825.088 417.892 824.896 418.264 824.896 418.744C824.896 419.32 825.196 419.752 825.796 420.04C826.42 420.328 827.38 420.616 828.676 420.904C830.164 421.288 831.376 421.672 832.312 422.056C833.248 422.416 834.064 423.016 834.76 423.856C835.48 424.672 835.852 425.776 835.876 427.168C835.876 428.344 835.54 429.4 834.868 430.336C834.22 431.248 833.272 431.968 832.024 432.496C830.8 433.024 829.372 433.288 827.74 433.288Z" fill="white"/>
<path d="M148.832 464.5H146.631C146.5 463.867 146.273 463.31 145.947 462.831C145.627 462.352 145.237 461.949 144.775 461.624C144.319 461.292 143.813 461.044 143.257 460.878C142.701 460.712 142.121 460.629 141.517 460.629C140.416 460.629 139.419 460.907 138.525 461.464C137.637 462.02 136.93 462.84 136.403 463.923C135.883 465.006 135.622 466.335 135.622 467.909C135.622 469.483 135.883 470.812 136.403 471.895C136.93 472.978 137.637 473.798 138.525 474.354C139.419 474.911 140.416 475.189 141.517 475.189C142.121 475.189 142.701 475.106 143.257 474.94C143.813 474.775 144.319 474.529 144.775 474.203C145.237 473.872 145.627 473.467 145.947 472.987C146.273 472.502 146.5 471.946 146.631 471.318H148.832C148.667 472.247 148.365 473.079 147.927 473.813C147.489 474.547 146.944 475.171 146.293 475.686C145.642 476.195 144.911 476.583 144.1 476.849C143.296 477.115 142.434 477.249 141.517 477.249C139.966 477.249 138.587 476.87 137.38 476.112C136.173 475.355 135.223 474.277 134.53 472.881C133.838 471.484 133.491 469.827 133.491 467.909C133.491 465.991 133.838 464.334 134.53 462.938C135.223 461.541 136.173 460.464 137.38 459.706C138.587 458.948 139.966 458.57 141.517 458.57C142.434 458.57 143.296 458.703 144.1 458.969C144.911 459.235 145.642 459.626 146.293 460.141C146.944 460.65 147.489 461.271 147.927 462.005C148.365 462.733 148.667 463.565 148.832 464.5ZM154.201 468.797V477H152.106V458.818H154.201V465.494H154.379C154.698 464.79 155.178 464.231 155.817 463.816C156.462 463.396 157.32 463.186 158.392 463.186C159.321 463.186 160.135 463.373 160.833 463.745C161.531 464.112 162.073 464.678 162.458 465.441C162.848 466.199 163.044 467.163 163.044 468.335V477H160.948V468.477C160.948 467.394 160.667 466.557 160.105 465.965C159.549 465.367 158.776 465.068 157.788 465.068C157.101 465.068 156.486 465.213 155.941 465.503C155.403 465.793 154.977 466.216 154.663 466.773C154.355 467.329 154.201 468.004 154.201 468.797ZM170.889 477.32C170.025 477.32 169.241 477.157 168.537 476.831C167.832 476.5 167.273 476.023 166.859 475.402C166.445 474.775 166.237 474.017 166.237 473.129C166.237 472.348 166.391 471.715 166.699 471.229C167.007 470.738 167.418 470.353 167.933 470.075C168.448 469.797 169.016 469.59 169.638 469.454C170.265 469.312 170.895 469.199 171.529 469.116C172.357 469.01 173.029 468.93 173.544 468.877C174.065 468.818 174.443 468.72 174.68 468.584C174.923 468.448 175.044 468.211 175.044 467.874V467.803C175.044 466.927 174.805 466.246 174.325 465.761C173.852 465.275 173.133 465.033 172.168 465.033C171.168 465.033 170.383 465.252 169.815 465.69C169.247 466.128 168.847 466.595 168.617 467.092L166.628 466.382C166.983 465.554 167.457 464.908 168.048 464.447C168.646 463.979 169.297 463.654 170.002 463.47C170.712 463.281 171.41 463.186 172.097 463.186C172.535 463.186 173.038 463.239 173.606 463.346C174.18 463.446 174.733 463.657 175.266 463.976C175.805 464.296 176.252 464.778 176.607 465.423C176.962 466.068 177.139 466.933 177.139 468.016V477H175.044V475.153H174.938C174.796 475.449 174.559 475.766 174.227 476.103C173.896 476.441 173.455 476.728 172.905 476.964C172.354 477.201 171.682 477.32 170.889 477.32ZM171.209 475.438C172.038 475.438 172.736 475.275 173.304 474.949C173.878 474.624 174.31 474.203 174.6 473.689C174.896 473.174 175.044 472.632 175.044 472.064V470.146C174.955 470.253 174.76 470.35 174.458 470.439C174.162 470.522 173.819 470.596 173.428 470.661C173.044 470.72 172.668 470.774 172.301 470.821C171.94 470.862 171.647 470.898 171.422 470.928C170.878 470.999 170.369 471.114 169.895 471.274C169.427 471.428 169.049 471.661 168.759 471.975C168.475 472.283 168.333 472.703 168.333 473.236C168.333 473.964 168.602 474.514 169.14 474.887C169.685 475.254 170.374 475.438 171.209 475.438ZM186.894 463.364V465.139H179.827V463.364H186.894ZM181.887 460.097H183.982V473.094C183.982 473.686 184.068 474.129 184.239 474.425C184.417 474.715 184.642 474.911 184.914 475.011C185.192 475.106 185.485 475.153 185.793 475.153C186.024 475.153 186.213 475.142 186.361 475.118C186.509 475.088 186.628 475.065 186.716 475.047L187.142 476.929C187 476.982 186.802 477.036 186.548 477.089C186.293 477.148 185.971 477.178 185.58 477.178C184.988 477.178 184.408 477.05 183.84 476.796C183.278 476.541 182.81 476.154 182.437 475.633C182.07 475.112 181.887 474.455 181.887 473.662V460.097ZM190.623 477V458.818H192.718V465.53H192.895C193.049 465.293 193.262 464.991 193.535 464.624C193.813 464.251 194.209 463.92 194.724 463.63C195.245 463.334 195.949 463.186 196.837 463.186C197.985 463.186 198.997 463.473 199.873 464.047C200.749 464.621 201.433 465.435 201.924 466.489C202.415 467.542 202.661 468.785 202.661 470.217C202.661 471.661 202.415 472.913 201.924 473.973C201.433 475.026 200.752 475.843 199.882 476.423C199.012 476.997 198.009 477.284 196.873 477.284C195.997 477.284 195.295 477.139 194.769 476.849C194.242 476.553 193.836 476.219 193.552 475.846C193.268 475.467 193.049 475.153 192.895 474.905H192.647V477H190.623ZM192.682 470.182C192.682 471.212 192.833 472.12 193.135 472.907C193.437 473.689 193.878 474.301 194.458 474.745C195.038 475.183 195.748 475.402 196.589 475.402C197.464 475.402 198.195 475.171 198.781 474.71C199.373 474.242 199.817 473.615 200.113 472.827C200.415 472.034 200.566 471.152 200.566 470.182C200.566 469.223 200.418 468.359 200.122 467.589C199.832 466.814 199.391 466.202 198.799 465.752C198.213 465.296 197.476 465.068 196.589 465.068C195.736 465.068 195.02 465.284 194.44 465.716C193.86 466.142 193.422 466.74 193.126 467.51C192.83 468.273 192.682 469.164 192.682 470.182ZM211.406 477.284C210.175 477.284 209.094 476.991 208.165 476.405C207.242 475.819 206.52 475 205.999 473.946C205.484 472.893 205.227 471.661 205.227 470.253C205.227 468.832 205.484 467.592 205.999 466.533C206.52 465.474 207.242 464.651 208.165 464.065C209.094 463.479 210.175 463.186 211.406 463.186C212.637 463.186 213.714 463.479 214.637 464.065C215.566 464.651 216.288 465.474 216.803 466.533C217.324 467.592 217.585 468.832 217.585 470.253C217.585 471.661 217.324 472.893 216.803 473.946C216.288 475 215.566 475.819 214.637 476.405C213.714 476.991 212.637 477.284 211.406 477.284ZM211.406 475.402C212.341 475.402 213.11 475.162 213.714 474.683C214.318 474.203 214.764 473.573 215.054 472.792C215.344 472.011 215.489 471.164 215.489 470.253C215.489 469.341 215.344 468.492 215.054 467.705C214.764 466.918 214.318 466.281 213.714 465.796C213.11 465.311 212.341 465.068 211.406 465.068C210.47 465.068 209.701 465.311 209.097 465.796C208.494 466.281 208.047 466.918 207.757 467.705C207.467 468.492 207.322 469.341 207.322 470.253C207.322 471.164 207.467 472.011 207.757 472.792C208.047 473.573 208.494 474.203 209.097 474.683C209.701 475.162 210.47 475.402 211.406 475.402ZM226.713 463.364V465.139H219.646V463.364H226.713ZM221.706 460.097H223.801V473.094C223.801 473.686 223.887 474.129 224.059 474.425C224.236 474.715 224.461 474.911 224.733 475.011C225.012 475.106 225.305 475.153 225.612 475.153C225.843 475.153 226.033 475.142 226.181 475.118C226.329 475.088 226.447 475.065 226.536 475.047L226.962 476.929C226.82 476.982 226.622 477.036 226.367 477.089C226.113 477.148 225.79 477.178 225.399 477.178C224.807 477.178 224.227 477.05 223.659 476.796C223.097 476.541 222.629 476.154 222.257 475.633C221.89 475.112 221.706 474.455 221.706 473.662V460.097ZM239.28 466.418L237.398 466.95C237.279 466.637 237.105 466.332 236.874 466.036C236.649 465.734 236.341 465.485 235.951 465.29C235.56 465.095 235.06 464.997 234.45 464.997C233.616 464.997 232.92 465.19 232.364 465.574C231.814 465.953 231.538 466.435 231.538 467.021C231.538 467.542 231.728 467.953 232.107 468.255C232.485 468.557 233.077 468.809 233.882 469.01L235.906 469.507C237.125 469.803 238.034 470.256 238.632 470.865C239.23 471.469 239.528 472.247 239.528 473.2C239.528 473.982 239.304 474.68 238.854 475.295C238.41 475.911 237.788 476.396 236.989 476.751C236.19 477.107 235.261 477.284 234.202 477.284C232.811 477.284 231.66 476.982 230.748 476.379C229.837 475.775 229.26 474.893 229.017 473.733L231.006 473.236C231.195 473.97 231.553 474.52 232.08 474.887C232.613 475.254 233.308 475.438 234.166 475.438C235.143 475.438 235.918 475.23 236.492 474.816C237.072 474.396 237.362 473.893 237.362 473.307C237.362 472.833 237.196 472.437 236.865 472.117C236.534 471.792 236.025 471.549 235.338 471.389L233.065 470.857C231.817 470.561 230.899 470.102 230.313 469.48C229.733 468.853 229.443 468.069 229.443 467.128C229.443 466.358 229.659 465.678 230.091 465.086C230.529 464.494 231.124 464.029 231.876 463.692C232.633 463.355 233.491 463.186 234.45 463.186C235.8 463.186 236.859 463.482 237.629 464.074C238.404 464.666 238.954 465.447 239.28 466.418ZM252.199 458.818V477H249.998V458.818H252.199ZM257.36 477H255.051L261.727 458.818H264L270.676 477H268.368L262.935 461.695H262.793L257.36 477ZM258.212 469.898H267.516V471.851H258.212V469.898ZM283.309 452.959V482.859H281.534V452.959H283.309ZM301.36 477H295.75V458.818H301.609C303.373 458.818 304.882 459.182 306.137 459.91C307.391 460.632 308.353 461.671 309.022 463.026C309.691 464.376 310.025 465.991 310.025 467.874C310.025 469.768 309.688 471.398 309.013 472.765C308.338 474.127 307.356 475.174 306.066 475.908C304.775 476.636 303.207 477 301.36 477ZM297.951 475.047H301.218C302.722 475.047 303.967 474.757 304.956 474.177C305.944 473.597 306.681 472.771 307.166 471.7C307.652 470.629 307.894 469.353 307.894 467.874C307.894 466.406 307.655 465.142 307.175 464.083C306.696 463.017 305.98 462.201 305.027 461.632C304.074 461.058 302.887 460.771 301.467 460.771H297.951V475.047ZM319.152 477.284C317.838 477.284 316.704 476.994 315.751 476.414C314.804 475.828 314.073 475.011 313.559 473.964C313.05 472.91 312.795 471.685 312.795 470.288C312.795 468.892 313.05 467.661 313.559 466.595C314.073 465.524 314.79 464.689 315.707 464.092C316.63 463.488 317.707 463.186 318.938 463.186C319.649 463.186 320.35 463.304 321.043 463.541C321.735 463.778 322.365 464.163 322.934 464.695C323.502 465.222 323.954 465.92 324.292 466.79C324.629 467.661 324.798 468.732 324.798 470.004V470.892H314.286V469.081H322.667C322.667 468.312 322.513 467.625 322.206 467.021C321.904 466.418 321.472 465.941 320.909 465.592C320.353 465.243 319.696 465.068 318.938 465.068C318.104 465.068 317.382 465.275 316.772 465.69C316.169 466.098 315.704 466.631 315.378 467.288C315.053 467.945 314.89 468.649 314.89 469.401V470.608C314.89 471.638 315.068 472.511 315.423 473.227C315.784 473.937 316.284 474.479 316.923 474.852C317.562 475.219 318.305 475.402 319.152 475.402C319.702 475.402 320.199 475.325 320.643 475.171C321.093 475.011 321.48 474.775 321.806 474.461C322.132 474.141 322.383 473.745 322.561 473.271L324.585 473.839C324.372 474.526 324.014 475.13 323.511 475.651C323.007 476.165 322.386 476.568 321.646 476.858C320.906 477.142 320.075 477.284 319.152 477.284ZM337.644 466.418L335.762 466.95C335.644 466.637 335.469 466.332 335.238 466.036C335.013 465.734 334.706 465.485 334.315 465.29C333.924 465.095 333.424 464.997 332.815 464.997C331.98 464.997 331.285 465.19 330.728 465.574C330.178 465.953 329.903 466.435 329.903 467.021C329.903 467.542 330.092 467.953 330.471 468.255C330.85 468.557 331.441 468.809 332.246 469.01L334.271 469.507C335.49 469.803 336.398 470.256 336.996 470.865C337.594 471.469 337.893 472.247 337.893 473.2C337.893 473.982 337.668 474.68 337.218 475.295C336.774 475.911 336.153 476.396 335.354 476.751C334.555 477.107 333.625 477.284 332.566 477.284C331.175 477.284 330.024 476.982 329.112 476.379C328.201 475.775 327.624 474.893 327.381 473.733L329.37 473.236C329.559 473.97 329.917 474.52 330.444 474.887C330.977 475.254 331.672 475.438 332.53 475.438C333.507 475.438 334.282 475.23 334.856 474.816C335.436 474.396 335.726 473.893 335.726 473.307C335.726 472.833 335.561 472.437 335.229 472.117C334.898 471.792 334.389 471.549 333.702 471.389L331.43 470.857C330.181 470.561 329.263 470.102 328.677 469.48C328.097 468.853 327.807 468.069 327.807 467.128C327.807 466.358 328.023 465.678 328.456 465.086C328.893 464.494 329.488 464.029 330.24 463.692C330.998 463.355 331.856 463.186 332.815 463.186C334.164 463.186 335.223 463.482 335.993 464.074C336.768 464.666 337.319 465.447 337.644 466.418ZM345.059 477.32C344.195 477.32 343.411 477.157 342.707 476.831C342.002 476.5 341.443 476.023 341.029 475.402C340.614 474.775 340.407 474.017 340.407 473.129C340.407 472.348 340.561 471.715 340.869 471.229C341.177 470.738 341.588 470.353 342.103 470.075C342.618 469.797 343.186 469.59 343.808 469.454C344.435 469.312 345.065 469.199 345.699 469.116C346.527 469.01 347.199 468.93 347.714 468.877C348.235 468.818 348.613 468.72 348.85 468.584C349.093 468.448 349.214 468.211 349.214 467.874V467.803C349.214 466.927 348.974 466.246 348.495 465.761C348.022 465.275 347.302 465.033 346.338 465.033C345.337 465.033 344.553 465.252 343.985 465.69C343.417 466.128 343.017 466.595 342.787 467.092L340.798 466.382C341.153 465.554 341.627 464.908 342.218 464.447C342.816 463.979 343.467 463.654 344.172 463.47C344.882 463.281 345.58 463.186 346.267 463.186C346.705 463.186 347.208 463.239 347.776 463.346C348.35 463.446 348.903 463.657 349.436 463.976C349.975 464.296 350.422 464.778 350.777 465.423C351.132 466.068 351.309 466.933 351.309 468.016V477H349.214V475.153H349.108C348.966 475.449 348.729 475.766 348.397 476.103C348.066 476.441 347.625 476.728 347.075 476.964C346.524 477.201 345.852 477.32 345.059 477.32ZM345.379 475.438C346.208 475.438 346.906 475.275 347.474 474.949C348.048 474.624 348.48 474.203 348.77 473.689C349.066 473.174 349.214 472.632 349.214 472.064V470.146C349.125 470.253 348.93 470.35 348.628 470.439C348.332 470.522 347.989 470.596 347.598 470.661C347.214 470.72 346.838 470.774 346.471 470.821C346.11 470.862 345.817 470.898 345.592 470.928C345.047 470.999 344.538 471.114 344.065 471.274C343.597 471.428 343.219 471.661 342.929 471.975C342.645 472.283 342.502 472.703 342.502 473.236C342.502 473.964 342.772 474.514 343.31 474.887C343.855 475.254 344.544 475.438 345.379 475.438ZM355.133 477V463.364H357.158V465.423H357.3C357.548 464.749 357.998 464.201 358.649 463.781C359.3 463.361 360.034 463.151 360.851 463.151C361.005 463.151 361.197 463.154 361.428 463.159C361.659 463.165 361.833 463.174 361.952 463.186V465.317C361.881 465.299 361.718 465.272 361.463 465.237C361.215 465.195 360.951 465.175 360.673 465.175C360.01 465.175 359.418 465.314 358.898 465.592C358.383 465.864 357.974 466.243 357.672 466.728C357.377 467.208 357.229 467.755 357.229 468.371V477H355.133ZM364.435 477V463.364H366.459V465.423H366.601C366.85 464.749 367.3 464.201 367.951 463.781C368.602 463.361 369.336 463.151 370.153 463.151C370.306 463.151 370.499 463.154 370.73 463.159C370.96 463.165 371.135 463.174 371.253 463.186V465.317C371.182 465.299 371.02 465.272 370.765 465.237C370.517 465.195 370.253 465.175 369.975 465.175C369.312 465.175 368.72 465.314 368.199 465.592C367.684 465.864 367.276 466.243 366.974 466.728C366.678 467.208 366.53 467.755 366.53 468.371V477H364.435ZM378.862 477.284C377.631 477.284 376.55 476.991 375.621 476.405C374.698 475.819 373.976 475 373.455 473.946C372.94 472.893 372.683 471.661 372.683 470.253C372.683 468.832 372.94 467.592 373.455 466.533C373.976 465.474 374.698 464.651 375.621 464.065C376.55 463.479 377.631 463.186 378.862 463.186C380.093 463.186 381.17 463.479 382.093 464.065C383.022 464.651 383.744 465.474 384.259 466.533C384.78 467.592 385.041 468.832 385.041 470.253C385.041 471.661 384.78 472.893 384.259 473.946C383.744 475 383.022 475.819 382.093 476.405C381.17 476.991 380.093 477.284 378.862 477.284ZM378.862 475.402C379.797 475.402 380.566 475.162 381.17 474.683C381.774 474.203 382.22 473.573 382.51 472.792C382.8 472.011 382.945 471.164 382.945 470.253C382.945 469.341 382.8 468.492 382.51 467.705C382.22 466.918 381.774 466.281 381.17 465.796C380.566 465.311 379.797 465.068 378.862 465.068C377.927 465.068 377.157 465.311 376.553 465.796C375.95 466.281 375.503 466.918 375.213 467.705C374.923 468.492 374.778 469.341 374.778 470.253C374.778 471.164 374.923 472.011 375.213 472.792C375.503 473.573 375.95 474.203 376.553 474.683C377.157 475.162 377.927 475.402 378.862 475.402ZM390.334 458.818V477H388.239V458.818H390.334ZM396.267 458.818V477H394.172V458.818H396.267ZM405.644 477.284C404.413 477.284 403.333 476.991 402.403 476.405C401.48 475.819 400.758 475 400.237 473.946C399.722 472.893 399.465 471.661 399.465 470.253C399.465 468.832 399.722 467.592 400.237 466.533C400.758 465.474 401.48 464.651 402.403 464.065C403.333 463.479 404.413 463.186 405.644 463.186C406.875 463.186 407.952 463.479 408.875 464.065C409.805 464.651 410.527 465.474 411.042 466.533C411.562 467.592 411.823 468.832 411.823 470.253C411.823 471.661 411.562 472.893 411.042 473.946C410.527 475 409.805 475.819 408.875 476.405C407.952 476.991 406.875 477.284 405.644 477.284ZM405.644 475.402C406.579 475.402 407.348 475.162 407.952 474.683C408.556 474.203 409.003 473.573 409.293 472.792C409.583 472.011 409.728 471.164 409.728 470.253C409.728 469.341 409.583 468.492 409.293 467.705C409.003 466.918 408.556 466.281 407.952 465.796C407.348 465.311 406.579 465.068 405.644 465.068C404.709 465.068 403.939 465.311 403.336 465.796C402.732 466.281 402.285 466.918 401.995 467.705C401.705 468.492 401.56 469.341 401.56 470.253C401.56 471.164 401.705 472.011 401.995 472.792C402.285 473.573 402.732 474.203 403.336 474.683C403.939 475.162 404.709 475.402 405.644 475.402ZM425.142 477L420.987 463.364H423.189L426.136 473.804H426.278L429.19 463.364H431.427L434.304 473.768H434.446L437.393 463.364H439.595L435.44 477H433.381L430.398 466.524H430.184L427.202 477H425.142ZM447.618 477.284C446.304 477.284 445.171 476.994 444.218 476.414C443.271 475.828 442.54 475.011 442.025 473.964C441.516 472.91 441.262 471.685 441.262 470.288C441.262 468.892 441.516 467.661 442.025 466.595C442.54 465.524 443.256 464.689 444.174 464.092C445.097 463.488 446.174 463.186 447.405 463.186C448.116 463.186 448.817 463.304 449.509 463.541C450.202 463.778 450.832 464.163 451.4 464.695C451.968 465.222 452.421 465.92 452.759 466.79C453.096 467.661 453.265 468.732 453.265 470.004V470.892H442.753V469.081H451.134C451.134 468.312 450.98 467.625 450.672 467.021C450.37 466.418 449.938 465.941 449.376 465.592C448.82 465.243 448.163 465.068 447.405 465.068C446.571 465.068 445.849 465.275 445.239 465.69C444.635 466.098 444.171 466.631 443.845 467.288C443.52 467.945 443.357 468.649 443.357 469.401V470.608C443.357 471.638 443.535 472.511 443.89 473.227C444.251 473.937 444.751 474.479 445.39 474.852C446.029 475.219 446.772 475.402 447.618 475.402C448.169 475.402 448.666 475.325 449.11 475.171C449.56 475.011 449.947 474.775 450.273 474.461C450.598 474.141 450.85 473.745 451.027 473.271L453.052 473.839C452.839 474.526 452.48 475.13 451.977 475.651C451.474 476.165 450.853 476.568 450.113 476.858C449.373 477.142 448.542 477.284 447.618 477.284ZM456.736 477V458.818H458.831V465.53H459.009C459.162 465.293 459.376 464.991 459.648 464.624C459.926 464.251 460.323 463.92 460.837 463.63C461.358 463.334 462.063 463.186 462.95 463.186C464.099 463.186 465.111 463.473 465.987 464.047C466.863 464.621 467.546 465.435 468.037 466.489C468.529 467.542 468.774 468.785 468.774 470.217C468.774 471.661 468.529 472.913 468.037 473.973C467.546 475.026 466.866 475.843 465.995 476.423C465.125 476.997 464.122 477.284 462.986 477.284C462.11 477.284 461.409 477.139 460.882 476.849C460.355 476.553 459.95 476.219 459.666 475.846C459.381 475.467 459.162 475.153 459.009 474.905H458.76V477H456.736ZM458.796 470.182C458.796 471.212 458.946 472.12 459.248 472.907C459.55 473.689 459.991 474.301 460.571 474.745C461.151 475.183 461.861 475.402 462.702 475.402C463.578 475.402 464.309 475.171 464.895 474.71C465.486 474.242 465.93 473.615 466.226 472.827C466.528 472.034 466.679 471.152 466.679 470.182C466.679 469.223 466.531 468.359 466.235 467.589C465.945 466.814 465.504 466.202 464.912 465.752C464.326 465.296 463.59 465.068 462.702 465.068C461.85 465.068 461.133 465.284 460.553 465.716C459.973 466.142 459.535 466.74 459.239 467.51C458.944 468.273 458.796 469.164 458.796 470.182ZM482.064 452.959V482.859H480.289V452.959H482.064ZM504.448 463.364C504.341 462.464 503.909 461.766 503.151 461.268C502.394 460.771 501.465 460.523 500.364 460.523C499.559 460.523 498.855 460.653 498.251 460.913C497.653 461.174 497.186 461.532 496.848 461.988C496.517 462.443 496.351 462.961 496.351 463.541C496.351 464.027 496.466 464.444 496.697 464.793C496.934 465.136 497.236 465.423 497.603 465.654C497.97 465.879 498.354 466.065 498.757 466.213C499.159 466.355 499.529 466.471 499.867 466.56L501.713 467.057C502.187 467.181 502.713 467.353 503.294 467.572C503.879 467.791 504.439 468.09 504.971 468.468C505.51 468.841 505.954 469.321 506.303 469.907C506.652 470.493 506.827 471.212 506.827 472.064C506.827 473.046 506.569 473.934 506.055 474.727C505.546 475.52 504.8 476.151 503.817 476.618C502.841 477.086 501.654 477.32 500.257 477.32C498.955 477.32 497.828 477.109 496.875 476.689C495.928 476.269 495.182 475.683 494.638 474.931C494.099 474.18 493.794 473.307 493.723 472.312H495.996C496.055 472.999 496.286 473.567 496.688 474.017C497.097 474.461 497.612 474.792 498.233 475.011C498.86 475.224 499.535 475.331 500.257 475.331C501.098 475.331 501.852 475.195 502.521 474.923C503.19 474.644 503.72 474.26 504.11 473.768C504.501 473.271 504.696 472.691 504.696 472.028C504.696 471.425 504.528 470.933 504.19 470.555C503.853 470.176 503.409 469.868 502.858 469.631C502.308 469.395 501.713 469.187 501.074 469.01L498.837 468.371C497.416 467.962 496.292 467.379 495.463 466.622C494.635 465.864 494.22 464.873 494.22 463.648C494.22 462.63 494.496 461.742 495.046 460.984C495.602 460.221 496.348 459.629 497.283 459.209C498.224 458.783 499.275 458.57 500.435 458.57C501.607 458.57 502.648 458.78 503.56 459.2C504.471 459.614 505.193 460.182 505.726 460.904C506.265 461.627 506.549 462.446 506.578 463.364H504.448ZM510.163 477V463.364H512.258V477H510.163ZM511.228 461.091C510.82 461.091 510.468 460.952 510.172 460.674C509.882 460.395 509.737 460.061 509.737 459.67C509.737 459.28 509.882 458.945 510.172 458.667C510.468 458.389 510.82 458.25 511.228 458.25C511.636 458.25 511.986 458.389 512.276 458.667C512.572 458.945 512.72 459.28 512.72 459.67C512.72 460.061 512.572 460.395 512.276 460.674C511.986 460.952 511.636 461.091 511.228 461.091ZM525.754 466.418L523.872 466.95C523.754 466.637 523.579 466.332 523.349 466.036C523.124 465.734 522.816 465.485 522.425 465.29C522.035 465.095 521.535 464.997 520.925 464.997C520.09 464.997 519.395 465.19 518.839 465.574C518.288 465.953 518.013 466.435 518.013 467.021C518.013 467.542 518.202 467.953 518.581 468.255C518.96 468.557 519.552 468.809 520.357 469.01L522.381 469.507C523.6 469.803 524.509 470.256 525.106 470.865C525.704 471.469 526.003 472.247 526.003 473.2C526.003 473.982 525.778 474.68 525.328 475.295C524.884 475.911 524.263 476.396 523.464 476.751C522.665 477.107 521.736 477.284 520.676 477.284C519.285 477.284 518.134 476.982 517.223 476.379C516.311 475.775 515.734 474.893 515.492 473.733L517.48 473.236C517.67 473.97 518.028 474.52 518.555 474.887C519.087 475.254 519.783 475.438 520.641 475.438C521.617 475.438 522.393 475.23 522.967 474.816C523.547 474.396 523.837 473.893 523.837 473.307C523.837 472.833 523.671 472.437 523.34 472.117C523.008 471.792 522.499 471.549 521.813 471.389L519.54 470.857C518.291 470.561 517.374 470.102 516.788 469.48C516.208 468.853 515.918 468.069 515.918 467.128C515.918 466.358 516.134 465.678 516.566 465.086C517.004 464.494 517.599 464.029 518.35 463.692C519.108 463.355 519.966 463.186 520.925 463.186C522.274 463.186 523.334 463.482 524.103 464.074C524.878 464.666 525.429 465.447 525.754 466.418ZM535.087 463.364V465.139H528.021V463.364H535.087ZM530.08 460.097H532.175V473.094C532.175 473.686 532.261 474.129 532.433 474.425C532.61 474.715 532.835 474.911 533.108 475.011C533.386 475.106 533.679 475.153 533.986 475.153C534.217 475.153 534.407 475.142 534.555 475.118C534.703 475.088 534.821 475.065 534.91 475.047L535.336 476.929C535.194 476.982 534.996 477.036 534.741 477.089C534.487 477.148 534.164 477.178 533.773 477.178C533.181 477.178 532.601 477.05 532.033 476.796C531.471 476.541 531.003 476.154 530.631 475.633C530.264 475.112 530.08 474.455 530.08 473.662V460.097ZM543.81 477.284C542.496 477.284 541.362 476.994 540.41 476.414C539.463 475.828 538.732 475.011 538.217 473.964C537.708 472.91 537.453 471.685 537.453 470.288C537.453 468.892 537.708 467.661 538.217 466.595C538.732 465.524 539.448 464.689 540.365 464.092C541.288 463.488 542.366 463.186 543.597 463.186C544.307 463.186 545.008 463.304 545.701 463.541C546.393 463.778 547.024 464.163 547.592 464.695C548.16 465.222 548.613 465.92 548.95 466.79C549.287 467.661 549.456 468.732 549.456 470.004V470.892H538.945V469.081H547.325C547.325 468.312 547.171 467.625 546.864 467.021C546.562 466.418 546.13 465.941 545.568 465.592C545.011 465.243 544.354 465.068 543.597 465.068C542.762 465.068 542.04 465.275 541.43 465.69C540.827 466.098 540.362 466.631 540.037 467.288C539.711 467.945 539.548 468.649 539.548 469.401V470.608C539.548 471.638 539.726 472.511 540.081 473.227C540.442 473.937 540.942 474.479 541.581 474.852C542.221 475.219 542.963 475.402 543.81 475.402C544.36 475.402 544.857 475.325 545.301 475.171C545.751 475.011 546.139 474.775 546.464 474.461C546.79 474.141 547.041 473.745 547.219 473.271L549.243 473.839C549.03 474.526 548.672 475.13 548.169 475.651C547.666 476.165 547.044 476.568 546.304 476.858C545.565 477.142 544.733 477.284 543.81 477.284ZM552.643 477V463.364H554.667V465.494H554.845C555.129 464.766 555.588 464.201 556.221 463.799C556.854 463.39 557.615 463.186 558.503 463.186C559.402 463.186 560.151 463.39 560.749 463.799C561.352 464.201 561.823 464.766 562.16 465.494H562.302C562.651 464.79 563.175 464.231 563.874 463.816C564.572 463.396 565.41 463.186 566.386 463.186C567.605 463.186 568.603 463.568 569.378 464.331C570.153 465.089 570.541 466.27 570.541 467.874V477H568.446V467.874C568.446 466.867 568.171 466.148 567.62 465.716C567.07 465.284 566.422 465.068 565.676 465.068C564.717 465.068 563.974 465.358 563.448 465.938C562.921 466.512 562.657 467.24 562.657 468.122V477H560.527V467.661C560.527 466.885 560.275 466.261 559.772 465.787C559.269 465.308 558.621 465.068 557.828 465.068C557.283 465.068 556.774 465.213 556.301 465.503C555.833 465.793 555.455 466.196 555.165 466.711C554.88 467.22 554.738 467.808 554.738 468.477V477H552.643ZM578.384 477.32C577.52 477.32 576.736 477.157 576.032 476.831C575.328 476.5 574.768 476.023 574.354 475.402C573.94 474.775 573.733 474.017 573.733 473.129C573.733 472.348 573.886 471.715 574.194 471.229C574.502 470.738 574.913 470.353 575.428 470.075C575.943 469.797 576.511 469.59 577.133 469.454C577.76 469.312 578.39 469.199 579.024 469.116C579.852 469.01 580.524 468.93 581.039 468.877C581.56 468.818 581.939 468.72 582.175 468.584C582.418 468.448 582.539 468.211 582.539 467.874V467.803C582.539 466.927 582.3 466.246 581.82 465.761C581.347 465.275 580.628 465.033 579.663 465.033C578.663 465.033 577.878 465.252 577.31 465.69C576.742 466.128 576.343 466.595 576.112 467.092L574.123 466.382C574.478 465.554 574.952 464.908 575.544 464.447C576.141 463.979 576.792 463.654 577.497 463.47C578.207 463.281 578.905 463.186 579.592 463.186C580.03 463.186 580.533 463.239 581.101 463.346C581.675 463.446 582.229 463.657 582.761 463.976C583.3 464.296 583.747 464.778 584.102 465.423C584.457 466.068 584.634 466.933 584.634 468.016V477H582.539V475.153H582.433C582.291 475.449 582.054 475.766 581.723 476.103C581.391 476.441 580.95 476.728 580.4 476.964C579.849 477.201 579.178 477.32 578.384 477.32ZM578.704 475.438C579.533 475.438 580.231 475.275 580.799 474.949C581.373 474.624 581.805 474.203 582.095 473.689C582.391 473.174 582.539 472.632 582.539 472.064V470.146C582.451 470.253 582.255 470.35 581.953 470.439C581.657 470.522 581.314 470.596 580.924 470.661C580.539 470.72 580.163 470.774 579.796 470.821C579.435 470.862 579.142 470.898 578.917 470.928C578.373 470.999 577.864 471.114 577.39 471.274C576.923 471.428 576.544 471.661 576.254 471.975C575.97 472.283 575.828 472.703 575.828 473.236C575.828 473.964 576.097 474.514 576.636 474.887C577.18 475.254 577.87 475.438 578.704 475.438ZM598.118 466.418L596.236 466.95C596.117 466.637 595.943 466.332 595.712 466.036C595.487 465.734 595.179 465.485 594.789 465.29C594.398 465.095 593.898 464.997 593.288 464.997C592.454 464.997 591.758 465.19 591.202 465.574C590.651 465.953 590.376 466.435 590.376 467.021C590.376 467.542 590.566 467.953 590.944 468.255C591.323 468.557 591.915 468.809 592.72 469.01L594.744 469.507C595.963 469.803 596.872 470.256 597.47 470.865C598.067 471.469 598.366 472.247 598.366 473.2C598.366 473.982 598.141 474.68 597.692 475.295C597.248 475.911 596.626 476.396 595.827 476.751C595.028 477.107 594.099 477.284 593.04 477.284C591.649 477.284 590.498 476.982 589.586 476.379C588.675 475.775 588.098 474.893 587.855 473.733L589.844 473.236C590.033 473.97 590.391 474.52 590.918 474.887C591.45 475.254 592.146 475.438 593.004 475.438C593.981 475.438 594.756 475.23 595.33 474.816C595.91 474.396 596.2 473.893 596.2 473.307C596.2 472.833 596.034 472.437 595.703 472.117C595.372 471.792 594.863 471.549 594.176 471.389L591.903 470.857C590.654 470.561 589.737 470.102 589.151 469.48C588.571 468.853 588.281 468.069 588.281 467.128C588.281 466.358 588.497 465.678 588.929 465.086C589.367 464.494 589.962 464.029 590.714 463.692C591.471 463.355 592.329 463.186 593.288 463.186C594.638 463.186 595.697 463.482 596.466 464.074C597.242 464.666 597.792 465.447 598.118 466.418ZM608.551 482.114V463.364H610.576V465.53H610.824C610.978 465.293 611.191 464.991 611.463 464.624C611.742 464.251 612.138 463.92 612.653 463.63C613.174 463.334 613.878 463.186 614.766 463.186C615.914 463.186 616.926 463.473 617.802 464.047C618.678 464.621 619.362 465.435 619.853 466.489C620.344 467.542 620.59 468.785 620.59 470.217C620.59 471.661 620.344 472.913 619.853 473.973C619.362 475.026 618.681 475.843 617.811 476.423C616.941 476.997 615.938 477.284 614.801 477.284C613.925 477.284 613.224 477.139 612.697 476.849C612.171 476.553 611.765 476.219 611.481 475.846C611.197 475.467 610.978 475.153 610.824 474.905H610.647V482.114H608.551ZM610.611 470.182C610.611 471.212 610.762 472.12 611.064 472.907C611.366 473.689 611.807 474.301 612.387 474.745C612.967 475.183 613.677 475.402 614.517 475.402C615.393 475.402 616.124 475.171 616.71 474.71C617.302 474.242 617.746 473.615 618.042 472.827C618.344 472.034 618.495 471.152 618.495 470.182C618.495 469.223 618.347 468.359 618.051 467.589C617.761 466.814 617.32 466.202 616.728 465.752C616.142 465.296 615.405 465.068 614.517 465.068C613.665 465.068 612.949 465.284 612.369 465.716C611.789 466.142 611.351 466.74 611.055 467.51C610.759 468.273 610.611 469.164 610.611 470.182ZM627.799 477.32C626.934 477.32 626.15 477.157 625.446 476.831C624.742 476.5 624.182 476.023 623.768 475.402C623.354 474.775 623.147 474.017 623.147 473.129C623.147 472.348 623.3 471.715 623.608 471.229C623.916 470.738 624.327 470.353 624.842 470.075C625.357 469.797 625.925 469.59 626.547 469.454C627.174 469.312 627.804 469.199 628.438 469.116C629.266 469.01 629.938 468.93 630.453 468.877C630.974 468.818 631.353 468.72 631.589 468.584C631.832 468.448 631.953 468.211 631.953 467.874V467.803C631.953 466.927 631.714 466.246 631.234 465.761C630.761 465.275 630.042 465.033 629.077 465.033C628.077 465.033 627.293 465.252 626.724 465.69C626.156 466.128 625.757 466.595 625.526 467.092L623.537 466.382C623.892 465.554 624.366 464.908 624.958 464.447C625.555 463.979 626.206 463.654 626.911 463.47C627.621 463.281 628.319 463.186 629.006 463.186C629.444 463.186 629.947 463.239 630.515 463.346C631.089 463.446 631.643 463.657 632.175 463.976C632.714 464.296 633.161 464.778 633.516 465.423C633.871 466.068 634.049 466.933 634.049 468.016V477H631.953V475.153H631.847C631.705 475.449 631.468 475.766 631.137 476.103C630.805 476.441 630.364 476.728 629.814 476.964C629.263 477.201 628.592 477.32 627.799 477.32ZM628.118 475.438C628.947 475.438 629.645 475.275 630.213 474.949C630.787 474.624 631.219 474.203 631.509 473.689C631.805 473.174 631.953 472.632 631.953 472.064V470.146C631.865 470.253 631.669 470.35 631.367 470.439C631.072 470.522 630.728 470.596 630.338 470.661C629.953 470.72 629.577 470.774 629.21 470.821C628.849 470.862 628.556 470.898 628.331 470.928C627.787 470.999 627.278 471.114 626.804 471.274C626.337 471.428 625.958 471.661 625.668 471.975C625.384 472.283 625.242 472.703 625.242 473.236C625.242 473.964 625.511 474.514 626.05 474.887C626.594 475.254 627.284 475.438 628.118 475.438ZM637.873 477V463.364H639.897V465.423H640.039C640.287 464.749 640.737 464.201 641.388 463.781C642.039 463.361 642.773 463.151 643.59 463.151C643.744 463.151 643.936 463.154 644.167 463.159C644.398 463.165 644.573 463.174 644.691 463.186V465.317C644.62 465.299 644.457 465.272 644.203 465.237C643.954 465.195 643.691 465.175 643.412 465.175C642.75 465.175 642.158 465.314 641.637 465.592C641.122 465.864 640.714 466.243 640.412 466.728C640.116 467.208 639.968 467.755 639.968 468.371V477H637.873ZM651.187 477.32C650.323 477.32 649.539 477.157 648.835 476.831C648.13 476.5 647.571 476.023 647.157 475.402C646.742 474.775 646.535 474.017 646.535 473.129C646.535 472.348 646.689 471.715 646.997 471.229C647.305 470.738 647.716 470.353 648.231 470.075C648.746 469.797 649.314 469.59 649.935 469.454C650.563 469.312 651.193 469.199 651.826 469.116C652.655 469.01 653.327 468.93 653.842 468.877C654.363 468.818 654.741 468.72 654.978 468.584C655.221 468.448 655.342 468.211 655.342 467.874V467.803C655.342 466.927 655.102 466.246 654.623 465.761C654.149 465.275 653.43 465.033 652.466 465.033C651.465 465.033 650.681 465.252 650.113 465.69C649.545 466.128 649.145 466.595 648.915 467.092L646.926 466.382C647.281 465.554 647.754 464.908 648.346 464.447C648.944 463.979 649.595 463.654 650.299 463.47C651.01 463.281 651.708 463.186 652.395 463.186C652.833 463.186 653.336 463.239 653.904 463.346C654.478 463.446 655.031 463.657 655.564 463.976C656.103 464.296 656.549 464.778 656.905 465.423C657.26 466.068 657.437 466.933 657.437 468.016V477H655.342V475.153H655.236C655.093 475.449 654.857 475.766 654.525 476.103C654.194 476.441 653.753 476.728 653.203 476.964C652.652 477.201 651.98 477.32 651.187 477.32ZM651.507 475.438C652.335 475.438 653.034 475.275 653.602 474.949C654.176 474.624 654.608 474.203 654.898 473.689C655.194 473.174 655.342 472.632 655.342 472.064V470.146C655.253 470.253 655.058 470.35 654.756 470.439C654.46 470.522 654.117 470.596 653.726 470.661C653.342 470.72 652.966 470.774 652.599 470.821C652.238 470.862 651.945 470.898 651.72 470.928C651.175 470.999 650.666 471.114 650.193 471.274C649.725 471.428 649.347 471.661 649.057 471.975C648.772 472.283 648.63 472.703 648.63 473.236C648.63 473.964 648.9 474.514 649.438 474.887C649.983 475.254 650.672 475.438 651.507 475.438ZM670.388 468.797V477H668.293V463.364H670.317V465.494H670.494C670.814 464.802 671.299 464.246 671.95 463.825C672.601 463.399 673.442 463.186 674.472 463.186C675.395 463.186 676.203 463.375 676.895 463.754C677.588 464.127 678.126 464.695 678.511 465.459C678.896 466.216 679.088 467.175 679.088 468.335V477H676.993V468.477C676.993 467.406 676.715 466.571 676.158 465.974C675.602 465.37 674.839 465.068 673.868 465.068C673.199 465.068 672.601 465.213 672.075 465.503C671.554 465.793 671.142 466.216 670.841 466.773C670.539 467.329 670.388 468.004 670.388 468.797ZM688.634 477.284C687.32 477.284 686.187 476.994 685.234 476.414C684.287 475.828 683.556 475.011 683.041 473.964C682.532 472.91 682.277 471.685 682.277 470.288C682.277 468.892 682.532 467.661 683.041 466.595C683.556 465.524 684.272 464.689 685.189 464.092C686.113 463.488 687.19 463.186 688.421 463.186C689.131 463.186 689.832 463.304 690.525 463.541C691.217 463.778 691.848 464.163 692.416 464.695C692.984 465.222 693.437 465.92 693.774 466.79C694.112 467.661 694.28 468.732 694.28 470.004V470.892H683.769V469.081H692.15C692.15 468.312 691.996 467.625 691.688 467.021C691.386 466.418 690.954 465.941 690.392 465.592C689.835 465.243 689.178 465.068 688.421 465.068C687.586 465.068 686.864 465.275 686.255 465.69C685.651 466.098 685.186 466.631 684.861 467.288C684.535 467.945 684.373 468.649 684.373 469.401V470.608C684.373 471.638 684.55 472.511 684.905 473.227C685.266 473.937 685.766 474.479 686.406 474.852C687.045 475.219 687.788 475.402 688.634 475.402C689.184 475.402 689.682 475.325 690.125 475.171C690.575 475.011 690.963 474.775 691.288 474.461C691.614 474.141 691.866 473.745 692.043 473.271L694.067 473.839C693.854 474.526 693.496 475.13 692.993 475.651C692.49 476.165 691.868 476.568 691.129 476.858C690.389 477.142 689.557 477.284 688.634 477.284ZM702.972 482.398C701.96 482.398 701.09 482.268 700.362 482.007C699.634 481.753 699.027 481.415 698.542 480.995C698.062 480.581 697.68 480.137 697.396 479.663L699.065 478.491C699.255 478.74 699.495 479.024 699.785 479.344C700.075 479.669 700.471 479.95 700.974 480.187C701.483 480.43 702.149 480.551 702.972 480.551C704.073 480.551 704.981 480.285 705.697 479.752C706.413 479.219 706.771 478.385 706.771 477.249V474.479H706.594C706.44 474.727 706.221 475.035 705.937 475.402C705.659 475.763 705.256 476.086 704.729 476.37C704.209 476.648 703.504 476.787 702.617 476.787C701.516 476.787 700.527 476.527 699.651 476.006C698.781 475.485 698.092 474.727 697.583 473.733C697.08 472.739 696.828 471.531 696.828 470.111C696.828 468.714 697.074 467.498 697.565 466.462C698.056 465.42 698.74 464.615 699.616 464.047C700.492 463.473 701.504 463.186 702.652 463.186C703.54 463.186 704.244 463.334 704.765 463.63C705.292 463.92 705.694 464.251 705.972 464.624C706.256 464.991 706.475 465.293 706.629 465.53H706.842V463.364H708.867V477.391C708.867 478.562 708.6 479.515 708.068 480.249C707.541 480.989 706.831 481.531 705.937 481.874C705.049 482.223 704.061 482.398 702.972 482.398ZM702.901 474.905C703.741 474.905 704.451 474.712 705.031 474.328C705.611 473.943 706.052 473.39 706.354 472.668C706.656 471.946 706.807 471.081 706.807 470.075C706.807 469.093 706.659 468.226 706.363 467.474C706.067 466.722 705.629 466.134 705.049 465.707C704.469 465.281 703.753 465.068 702.901 465.068C702.013 465.068 701.273 465.293 700.681 465.743C700.095 466.193 699.654 466.796 699.358 467.554C699.068 468.312 698.923 469.152 698.923 470.075C698.923 471.022 699.071 471.86 699.367 472.588C699.669 473.31 700.113 473.878 700.699 474.292C701.291 474.701 702.025 474.905 702.901 474.905ZM718.242 477.284C717.011 477.284 715.93 476.991 715.001 476.405C714.078 475.819 713.356 475 712.835 473.946C712.32 472.893 712.063 471.661 712.063 470.253C712.063 468.832 712.32 467.592 712.835 466.533C713.356 465.474 714.078 464.651 715.001 464.065C715.93 463.479 717.011 463.186 718.242 463.186C719.473 463.186 720.55 463.479 721.473 464.065C722.402 464.651 723.124 465.474 723.639 466.533C724.16 467.592 724.421 468.832 724.421 470.253C724.421 471.661 724.16 472.893 723.639 473.946C723.124 475 722.402 475.819 721.473 476.405C720.55 476.991 719.473 477.284 718.242 477.284ZM718.242 475.402C719.177 475.402 719.946 475.162 720.55 474.683C721.153 474.203 721.6 473.573 721.89 472.792C722.18 472.011 722.325 471.164 722.325 470.253C722.325 469.341 722.18 468.492 721.89 467.705C721.6 466.918 721.153 466.281 720.55 465.796C719.946 465.311 719.177 465.068 718.242 465.068C717.306 465.068 716.537 465.311 715.933 465.796C715.33 466.281 714.883 466.918 714.593 467.705C714.303 468.492 714.158 469.341 714.158 470.253C714.158 471.164 714.303 472.011 714.593 472.792C714.883 473.573 715.33 474.203 715.933 474.683C716.537 475.162 717.306 475.402 718.242 475.402ZM733.159 477.284C731.88 477.284 730.779 476.982 729.856 476.379C728.933 475.775 728.222 474.943 727.725 473.884C727.228 472.824 726.98 471.614 726.98 470.253C726.98 468.868 727.234 467.646 727.743 466.586C728.258 465.521 728.974 464.689 729.892 464.092C730.815 463.488 731.892 463.186 733.123 463.186C734.082 463.186 734.946 463.364 735.715 463.719C736.485 464.074 737.115 464.571 737.606 465.21C738.098 465.849 738.402 466.595 738.521 467.447H736.426C736.266 466.826 735.911 466.276 735.36 465.796C734.816 465.311 734.082 465.068 733.159 465.068C732.342 465.068 731.626 465.281 731.01 465.707C730.401 466.128 729.924 466.722 729.581 467.492C729.243 468.255 729.075 469.152 729.075 470.182C729.075 471.235 729.24 472.153 729.572 472.934C729.909 473.715 730.383 474.322 730.992 474.754C731.608 475.186 732.33 475.402 733.159 475.402C733.703 475.402 734.197 475.307 734.641 475.118C735.085 474.929 735.461 474.656 735.769 474.301C736.076 473.946 736.295 473.52 736.426 473.023H738.521C738.402 473.828 738.109 474.553 737.642 475.198C737.18 475.837 736.568 476.346 735.804 476.725C735.047 477.098 734.165 477.284 733.159 477.284ZM741.584 477V463.364H743.679V477H741.584ZM742.649 461.091C742.241 461.091 741.888 460.952 741.593 460.674C741.302 460.395 741.157 460.061 741.157 459.67C741.157 459.28 741.302 458.945 741.593 458.667C741.888 458.389 742.241 458.25 742.649 458.25C743.057 458.25 743.407 458.389 743.697 458.667C743.992 458.945 744.14 459.28 744.14 459.67C744.14 460.061 743.992 460.395 743.697 460.674C743.407 460.952 743.057 461.091 742.649 461.091ZM753.056 477.284C751.825 477.284 750.745 476.991 749.816 476.405C748.892 475.819 748.17 475 747.649 473.946C747.134 472.893 746.877 471.661 746.877 470.253C746.877 468.832 747.134 467.592 747.649 466.533C748.17 465.474 748.892 464.651 749.816 464.065C750.745 463.479 751.825 463.186 753.056 463.186C754.287 463.186 755.364 463.479 756.288 464.065C757.217 464.651 757.939 465.474 758.454 466.533C758.975 467.592 759.235 468.832 759.235 470.253C759.235 471.661 758.975 472.893 758.454 473.946C757.939 475 757.217 475.819 756.288 476.405C755.364 476.991 754.287 477.284 753.056 477.284ZM753.056 475.402C753.991 475.402 754.761 475.162 755.364 474.683C755.968 474.203 756.415 473.573 756.705 472.792C756.995 472.011 757.14 471.164 757.14 470.253C757.14 469.341 756.995 468.492 756.705 467.705C756.415 466.918 755.968 466.281 755.364 465.796C754.761 465.311 753.991 465.068 753.056 465.068C752.121 465.068 751.351 465.311 750.748 465.796C750.144 466.281 749.697 466.918 749.407 467.705C749.117 468.492 748.972 469.341 748.972 470.253C748.972 471.164 749.117 472.011 749.407 472.792C749.697 473.573 750.144 474.203 750.748 474.683C751.351 475.162 752.121 475.402 753.056 475.402ZM772.092 466.418L770.21 466.95C770.092 466.637 769.917 466.332 769.686 466.036C769.462 465.734 769.154 465.485 768.763 465.29C768.373 465.095 767.872 464.997 767.263 464.997C766.428 464.997 765.733 465.19 765.176 465.574C764.626 465.953 764.351 466.435 764.351 467.021C764.351 467.542 764.54 467.953 764.919 468.255C765.298 468.557 765.89 468.809 766.695 469.01L768.719 469.507C769.938 469.803 770.846 470.256 771.444 470.865C772.042 471.469 772.341 472.247 772.341 473.2C772.341 473.982 772.116 474.68 771.666 475.295C771.222 475.911 770.601 476.396 769.802 476.751C769.003 477.107 768.074 477.284 767.014 477.284C765.623 477.284 764.472 476.982 763.561 476.379C762.649 475.775 762.072 474.893 761.83 473.733L763.818 473.236C764.008 473.97 764.366 474.52 764.892 474.887C765.425 475.254 766.121 475.438 766.979 475.438C767.955 475.438 768.731 475.23 769.305 474.816C769.885 474.396 770.175 473.893 770.175 473.307C770.175 472.833 770.009 472.437 769.678 472.117C769.346 471.792 768.837 471.549 768.151 471.389L765.878 470.857C764.629 470.561 763.712 470.102 763.126 469.48C762.546 468.853 762.256 468.069 762.256 467.128C762.256 466.358 762.472 465.678 762.904 465.086C763.342 464.494 763.937 464.029 764.688 463.692C765.446 463.355 766.304 463.186 767.263 463.186C768.612 463.186 769.672 463.482 770.441 464.074C771.216 464.666 771.767 465.447 772.092 466.418Z" fill="#94A3B8"/>
<path d="M284 510H135C133.343 510 132 511.343 132 513C132 514.657 133.343 516 135 516H284C285.657 516 287 514.657 287 513C287 511.343 285.657 510 284 510Z" fill="#ED8936"/>
<path d="M282.767 330.55C294.317 320.703 287.592 301.379 282.767 295.45C277.839 289.394 269.07 298.629 261.94 305.998C255.195 312.969 241.947 325.46 241.947 325.46C241.947 325.46 271.004 340.578 282.767 330.55Z" fill="#FF7400"/>
<path fill-rule="evenodd" clip-rule="evenodd" d="M247.846 182.225V248.825C247.846 256.412 273.976 276.644 291 295.191V191.499C289.99 180.452 282.405 172.015 267.233 172.015C251.218 172.015 247.846 171.171 247.846 182.225Z" fill="white"/>
<g filter="url(#filter0_i_105_219)">
<path d="M159.344 334C141.004 334 130.686 328.094 129 314.596L129 205.762L173.673 252.164L173.673 322.189C173.673 333.156 175.359 334 159.344 334Z" fill="white"/>
</g>
<path d="M145.015 172.015C159.344 172.015 166.087 179.608 166.087 179.608L264.704 276.63C276.505 288.442 264.704 296.878 257.118 304.472C249.532 312.065 241.946 325.207 230.989 314.239L173.673 254.695L129 205.762V181.295C129 181.295 129.151 177.388 131.529 175.39C135.138 172.356 136.586 172.015 145.015 172.015Z" fill="white"/>
</g>
<defs>
<filter id="filter0_i_105_219" x="129" y="205.762" width="44.7239" height="133.238" filterUnits="userSpaceOnUse" color-interpolation-filters="sRGB">
<feFlood flood-opacity="0" result="BackgroundImageFix"/>
<feBlend mode="normal" in="SourceGraphic" in2="BackgroundImageFix" result="shape"/>
<feColorMatrix in="SourceAlpha" type="matrix" values="0 0 0 0 0 0 0 0 0 0 0 0 0 0 0 0 0 0 127 0" result="hardAlpha"/>
<feOffset dy="5"/>
<feGaussianBlur stdDeviation="5"/>
<feComposite in2="hardAlpha" operator="arithmetic" k2="-1" k3="1"/>
<feColorMatrix type="matrix" values="0 0 0 0 0 0 0 0 0 0 0 0 0 0 0 0 0 0 0.3 0"/>
<feBlend mode="normal" in2="shape" result="effect1_innerShadow_105_219"/>
</filter>
<clipPath id="clip0_105_219">
<rect width="1200" height="630" fill="white"/>
</clipPath>
</defs>
</svg>
